Bruno 2009 DVDRip XviD-Dubby
-------------------------------------------------------------------
Movie Inforation
-------------------------------------------------------------------
Movie Title : Bruno
IMDB Link : http://www.imdb.com/title/tt0889583/
Genre : Comedy
Cast : Sacha Baron Cohen; Gustaf Hammarsten; Clifford Bañagale
IMDB Ratings : 6.7/10 40,421 votes
Plot Outline : Flamboyant Austrian fashionista Brüno takes his show to America
Language : English
Duriation : 81 min
------------------------------------------------------------------
General Release Information
------------------------------------------------------------------
Release Name : Bruno 2009 DVDRip XviD-Dubby
Format : AVI
Format/Info : Audio Video Interleave
File size : 701 MiB
Duration : 1h 21mn
Overall bit rate : 1 204 Kbps
Writing application : VirtualDubMod 1.5.10.2 (build 2540/release)
Writing library : VirtualDubMod build 2540/release Video Information ID : 0
Format : MPEG-4 Visual
Format profile : AdvancedSimple@L5
Format settings, BVOP : Yes
Format settings, QPel : No
Format settings, GMC : No warppoints
Format settings, Matrix : Default (H.263)
Muxing mode : Packed bitstream
Codec ID : XVID
Codec ID/Hint : XviD
Duration : 1h 21mn
Bit rate : 1 066 Kbps
Width : 640 pixels
Height : 336 pixels
Display aspect ratio : 1.905
Frame rate : 23.976 fps
Resolution : 24 bits
Colorimetry : 4:2:0
Scan type : Progressive
Bits/(Pixel*Frame) : 0.207
Stream size : 621 MiB (89%)
Writing library : XviD 1.2.1 (UTC 2008-12-04)
------------------------------------------------------------------
Audio Information 
------------------------------------------------------------------
ID : 1
Format : MPEG Audio
Format version : Version 1
Format profile : Layer 3
Format settings, Mode : Joint stereo / MS Stereo
Codec ID : 55
Codec ID/Hint : MP3
Duration : 1h 21mn
Bit rate mode : Constant
Bit rate : 128 Kbps
Channel(s) : 2 channels
Sampling rate : 48.0 KHz
Resolution : 16 bits
Stream size : 74.6 MiB (11%)
Alignment : Aligned on interleaves
Interleave, duration : 42 ms (1.00 video frame)
Interleave, preload duration : 504 ms
------------------------------------------------------------------
Notes
------------------------------------------------------------------
Want to get the best quality from this rip? Then burn using convertx to dvd
all my releases will be 640X352 or close to that resolution so they work on
stand alone divx players. Look for more releases soon! All rips will be
standard 1 CD 700 MB so that even the person with slow internet can get my rips.
Got anything to offer me?? Send me a pm and we'll speak on msn.
Looking for NTSC and PAL DVDR sources. 
------------------------------------------------------------------
Quick Shouts: Wrath, BADASS, SaM, xxxObscenexxx and every other loyal member
of et thanks to you for seeding and sharing! Blazinseedboxes.com is a good place
to get a seedbox if you are interested!
------------------------------------------------------------------